<?xml version="1.0" standalone="no"?><!DOCTYPE svg PUBLIC "-//W3C//DTD SVG 1.1//EN" "http://www.w3.org/Graphics/SVG/1.1/DTD/svg11.dtd"><svg t="1532613889195" class="icon" style="" viewBox="0 0 1024 1024" version="1.1" xmlns="http://www.w3.org/2000/svg" p-id="5164" xmlns:xlink="http://www.w3.org/1999/xlink" width="200" height="200"><defs><style type="text/css"></style></defs><path d="M984.124611 424.274143c-12.760125 0-25.520249 12.760125-25.520249 25.520249 0 12.760125-6.380062 19.140187-19.140187 19.140187-12.760125 0-25.520249 12.760125-25.520249 25.520249S926.70405 513.595016 945.844237 513.595016c38.280374 0 63.800623-31.900312 63.800623-70.180685C1009.64486 430.654206 996.884735 424.274143 984.124611 424.274143z" p-id="5165"></path><path d="M237.657321 475.314642c-25.520249 0-51.040498 19.140187-51.040498 51.040498l0 153.121495c0 25.520249 19.140187 51.040498 51.040498 51.040498l127.601246 0c25.520249 0 51.040498-19.140187 51.040498-51.040498L416.299065 519.975078c0-25.520249-19.140187-51.040498-51.040498-51.040498L237.657321 468.934579z" p-id="5166"></path><path d="M901.183801 532.735202c-12.760125 0-25.520249 12.760125-25.520249 25.520249l0 395.563863c0 12.760125-6.380062 19.140187-19.140187 19.140187L154.716511 972.959502c-6.380062 0-19.140187-6.380062-19.140187-19.140187L135.576324 468.934579l-63.800623 0C65.395639 468.934579 52.635514 456.174455 52.635514 443.41433L52.635514 405.133956C52.635514 398.753894 65.395639 385.993769 71.775701 385.993769l38.280374 0 357.283489-319.003115c25.520249-19.140187 63.800623-19.140187 89.320872 0l185.021807 165.88162c12.760125 6.380062 25.520249 6.380062 31.900312 0 6.380062-12.760125 6.380062-25.520249 0-31.900312L582.180685 28.71028c-44.660436-38.280374-108.461059-38.280374-153.121495 0L90.915888 334.953271 71.775701 334.953271c-38.280374 0-63.800623 31.900312-63.800623 70.180685l0 38.280374c0 38.280374 31.900312 70.180685 63.800623 70.180685l12.760125 0 0 440.224299c0 38.280374 31.900312 70.180685 63.800623 70.180685l708.186916 0c38.280374 0 63.800623-31.900312 63.800623-70.180685L920.323988 558.255452C926.70405 545.495327 913.943925 532.735202 901.183801 532.735202z" p-id="5167"></path><path d="M633.221184 736.897196l370.043614-370.043614c25.520249-25.520249 25.520249-63.800623 0-82.94081l-63.800623-63.800623c-25.520249-25.520249-63.800623-25.520249-82.94081 0L480.099688 590.155763 633.221184 736.897196zM862.903427 239.252336c12.760125-12.760125 38.280374-12.760125 51.040498 0l63.800623 63.800623c12.760125 12.760125 12.760125 38.280374 0 51.040498L633.221184 704.996885 512 590.155763 862.903427 239.252336z" p-id="5168"></path><path d="M429.05919 762.417445c0 6.380062 0 19.140187 6.380062 25.520249 6.380062 6.380062 12.760125 12.760125 19.140187 12.760125 0 0 6.380062 0 6.380062 0L614.080997 768.797508 460.959502 615.676012 429.05919 762.417445zM563.040498 749.657321l-108.461059 19.140187 0 0c0 0 0 0 0 0 0 0 0 0 0 0l19.140187-108.461059L563.040498 749.657321z" p-id="5169"></path><path d="M575.800623 602.915888c0 0 6.380062 6.380062 6.380062 6.380062 0 0 6.380062 0 6.380062-6.380062L894.803738 303.05296C894.803738 296.672897 894.803738 290.292835 894.803738 283.912773c-6.380062-6.380062-12.760125-6.380062-19.140187 0L575.800623 583.775701C575.800623 590.155763 575.800623 596.535826 575.800623 602.915888z" p-id="5170"></path></svg>