<?xml version="1.0" standalone="no"?><!DOCTYPE svg PUBLIC "-//W3C//DTD SVG 1.1//EN" "http://www.w3.org/Graphics/SVG/1.1/DTD/svg11.dtd"><svg t="1532613470272" class="icon" style="" viewBox="0 0 1024 1024" version="1.1" xmlns="http://www.w3.org/2000/svg" p-id="3301" xmlns:xlink="http://www.w3.org/1999/xlink" width="200" height="200"><defs><style type="text/css"></style></defs><path d="M854.4 316.8h-67.2c-3.2 0-6.4 0-9.6 3.2l-28.8-112c-9.6-64-44.8-92.8-92.8-92.8h-284.8C316.8 115.2 288 156.8 278.4 208l-32 112s-3.2-3.2-6.4-3.2H169.6c-9.6 0-19.2 9.6-19.2 22.4v19.2c3.2 16 9.6 25.6 19.2 25.6l25.6 6.4c-9.6 19.2-12.8 41.6-12.8 67.2l-9.6 131.2V768c0 22.4 16 41.6 32 41.6H256c19.2 0 32-19.2 32-41.6v-51.2h438.4V768c0 22.4 16 41.6 32 41.6h51.2c19.2 0 32-19.2 32-41.6v-160-6.4-12.8l-9.6-131.2c0-25.6-3.2-48-12.8-67.2l25.6-6.4c9.6 0 19.2-9.6 19.2-22.4v-19.2c6.4-12.8 0-25.6-9.6-25.6zM300.8 294.4l22.4-73.6v-3.2c3.2-16 6.4-16 16-28.8h348.8c6.4 12.8 12.8 16 12.8 28.8l22.4 73.6 9.6 41.6c-3.2 28.8-32 54.4-54.4 54.4H348.8c-25.6 0-54.4-22.4-54.4-54.4l6.4-38.4z m6.4 323.2c-28.8 0-54.4-22.4-54.4-54.4 0-28.8 25.6-54.4 54.4-54.4 28.8 0 54.4 22.4 54.4 54.4 0 28.8-22.4 54.4-54.4 54.4z m313.6-25.6c0 9.6-6.4 19.2-16 19.2H416c-9.6 0-16-9.6-16-19.2v-51.2c0-9.6 6.4-19.2 16-19.2h188.8c9.6 0 16 9.6 16 19.2v51.2z m92.8 25.6c-28.8 0-54.4-22.4-54.4-54.4 0-28.8 25.6-54.4 54.4-54.4 28.8 0 54.4 22.4 54.4 54.4 0 28.8-25.6 54.4-54.4 54.4z m0 0" p-id="3302"></path></svg>