<?xml version="1.0" encoding="iso-8859-1"?>
<!-- Generator: Adobe Illustrator 18.0.0, SVG Export Plug-In . SVG Version: 6.00 Build 0)  -->
<!DOCTYPE svg PUBLIC "-//W3C//DTD SVG 1.1//EN" "http://www.w3.org/Graphics/SVG/1.1/DTD/svg11.dtd">
<svg version="1.1" id="Capa_1" xmlns="http://www.w3.org/2000/svg" xmlns:xlink="http://www.w3.org/1999/xlink" x="0px" y="0px"
	 viewBox="0 0 394.749 394.749" style="enable-background:new 0 0 394.749 394.749;" xml:space="preserve">
<g>
	<g>
		<path d="M355.091,115.563c-1.412-4.344-5.167-7.51-9.688-8.167l-95.778-13.918l-42.833-86.79C204.771,2.593,200.599,0,196.032,0
			c-4.567,0-8.739,2.593-10.761,6.688l-42.834,86.79l-95.778,13.918c-4.521,0.657-8.275,3.823-9.688,8.167
			c-1.411,4.345-0.234,9.113,3.037,12.302l69.306,67.556l-16.361,95.391c-0.772,4.502,1.078,9.052,4.773,11.736
			c3.696,2.685,8.595,3.039,12.638,0.914l85.668-45.038l85.666,45.038c1.756,0.923,3.673,1.378,5.583,1.378
			c2.488,0,4.964-0.772,7.055-2.292c3.695-2.684,5.546-7.234,4.773-11.736l-16.36-95.391l69.306-67.556
			C355.326,124.677,356.502,119.908,355.091,115.563z M261.479,182.638c-2.828,2.757-4.119,6.73-3.451,10.622l13.316,77.645
			l-69.729-36.659c-3.496-1.838-7.672-1.838-11.168,0l-69.73,36.659l13.317-77.645c0.668-3.893-0.623-7.865-3.451-10.622
			L74.171,127.65l77.96-11.329c3.908-0.568,7.287-3.022,9.035-6.564l34.865-70.643l34.864,70.643
			c1.748,3.542,5.127,5.996,9.035,6.564l77.96,11.329L261.479,182.638z"/>
		<path d="M29.763,177.838c-6.627,0-12,5.373-12,12v192.911c0,6.627,5.373,12,12,12c6.627,0,12-5.373,12-12V189.838
			C41.763,183.211,36.39,177.838,29.763,177.838z"/>
		<path d="M364.986,177.838c-6.627,0-12,5.373-12,12v192.911c0,6.627,5.373,12,12,12c6.627,0,12-5.373,12-12V189.838
			C376.986,183.211,371.613,177.838,364.986,177.838z"/>
		<path d="M280.508,324.356c-6.627,0-12,5.372-12,12v46.393c0,6.627,5.373,12,12,12c6.627,0,12-5.373,12-12v-46.393
			C292.508,329.728,287.135,324.356,280.508,324.356z"/>
		<path d="M196.032,286.708c-6.627,0-12,5.372-12,12v84.041c0,6.627,5.373,12,12,12c6.627,0,12-5.373,12-12v-84.041
			C208.032,292.08,202.659,286.708,196.032,286.708z"/>
		<path d="M111.554,324.356c-6.627,0-12,5.372-12,12v46.393c0,6.627,5.373,12,12,12c6.627,0,12-5.373,12-12v-46.393
			C123.554,329.728,118.181,324.356,111.554,324.356z"/>
	</g>
</g>
<g>
</g>
<g>
</g>
<g>
</g>
<g>
</g>
<g>
</g>
<g>
</g>
<g>
</g>
<g>
</g>
<g>
</g>
<g>
</g>
<g>
</g>
<g>
</g>
<g>
</g>
<g>
</g>
<g>
</g>
</svg>
