<?xml version="1.0" standalone="no"?><!DOCTYPE svg PUBLIC "-//W3C//DTD SVG 1.1//EN" "http://www.w3.org/Graphics/SVG/1.1/DTD/svg11.dtd"><svg t="1532613578784" class="icon" style="" viewBox="0 0 1027 1024" version="1.1" xmlns="http://www.w3.org/2000/svg" p-id="3564" xmlns:xlink="http://www.w3.org/1999/xlink" width="200.5859375" height="200"><defs><style type="text/css"></style></defs><path d="M707.948 969.528c16.63-5.3 32.65-11.635 48.04-18.895-7.035-2.415-13.915-5.27-20.59-8.56L707.948 969.528zM975.778 714.038c3.005-6.925 5.85-13.89 8.55-20.895l-12.425 12.425C973.273 708.358 974.547 711.183 975.778 714.038zM620.523 223.15l-108.6 0 0 327.939 104.02 104.705 72.635-72.645-68.055-68.495L620.523 223.15zM584.323 40.96c-380.102 0-434.404 364.382-434.404 364.382L5.12 405.342l217.199 218.632 217.204-218.632L258.522 405.342c0 0 63.35-255.067 325.802-255.067 256.409 0 326.904 255.067 325.809 364.379-0.335 33.875-8.915 70.875-23.805 107.905 1.64 0.75 3.26 1.515 4.875 2.31l44.265-44.265 64.705 64.705c12.265-43.845 18.56-88.215 18.56-130.655C1018.732 335.489 898.078 40.96 584.323 40.96zM647.698 868.373c-20.97 6.89-42.23 10.665-63.375 10.665-122.917-4.56-217.199-109.32-217.199-109.32l-108.602 109.32c0 0 128.222 109.305 325.802 109.305 34.31 0 66.79-4.015 97.355-11.445l-71.245-71.26L647.698 868.373zM1025.947 823.338l0-79.74-58.19 0c-3.76-14.63-9.565-28.44-17.07-41.135l41.165-41.16-56.385-56.39-41.165 41.165c-12.69-7.5-26.5-13.305-41.14-17.065l0-58.19-79.735 0 0 58.19c-14.63 3.76-28.45 9.565-41.14 17.065l-41.165-41.165-56.375 56.39 41.155 41.16c-7.495 12.69-13.3 26.505-17.06 41.135l-58.19 0 0 79.74 58.19 0c3.76 14.635 9.565 28.445 17.06 41.135l-41.155 41.165 56.385 56.385 41.155-41.165c12.69 7.505 26.51 13.31 41.14 17.07l0 58.19 79.735 0 0-58.19c14.64-3.76 28.45-9.565 41.14-17.07l41.165 41.165 56.385-56.385-41.165-41.165c7.505-12.69 13.31-26.5 17.07-41.135L1025.947 823.338zM813.303 889.788c-58.73 0-106.33-47.595-106.33-106.315 0-58.725 47.6-106.325 106.33-106.325 58.715 0 106.315 47.595 106.315 106.325C919.618 842.183 872.018 889.788 813.303 889.788z" p-id="3565"></path></svg>